# xmcd
#
# Track frame offsets:
# 150
# 18770
# 36265
# 61905
# 81915
# 98532
# 119195
# 134787
# 155337
# 160992
# 182162
# 203037
# 210195
# 238097
#
# Disc length: 3787 seconds
#
#
# Revision: 1
# Processed by: cddbd v1.5.2PL0 Copyright (c) Steve Scherf et al.
# Submitted via: FreeRIP 2.951 
#
DISCID=bc0ec90e
DTITLE=Tak Matsumoto - Hana
DYEAR=2003
DGENRE=New Age
TTITLE0=Koi-Uta
TTITLE1=#1090 Asian Sun
TTITLE2=Hana
TTITLE3=Machi
TTITLE4=Midousuji Blue
TTITLE5=Red Sky
TTITLE6=Little Wing
TTITLE7=Romeo and Juliet
TTITLE8=Hallelujah
TTITLE9=Engaged
TTITLE10=You Know...
TTITLE11=2011
TTITLE12=Trinity
TTITLE13=Bonus Multimedia
EXTD=YEAR: 2003
EXTT0=
EXTT1=
EXTT2=
EXTT3=
EXTT4=
EXTT5=
EXTT6=
EXTT7=
EXTT8=
EXTT9=
EXTT10=
EXTT11=
EXTT12=
EXTT13=
PLAYORDER=
